<?xml version="1.0" standalone="no"?>
<!DOCTYPE svg PUBLIC "-//W3C//DTD SVG 20010904//EN"
 "http://www.w3.org/TR/2001/REC-SVG-20010904/DTD/svg10.dtd">
<svg version="1.0" xmlns="http://www.w3.org/2000/svg"
 width="512.000000pt" height="512.000000pt" viewBox="0 0 512.000000 512.000000"
 preserveAspectRatio="xMidYMid meet">
<metadata>
Created by potrace 1.14, written by Peter Selinger 2001-2017
</metadata>
<g transform="translate(0.000000,512.000000) scale(0.100000,-0.100000)"
fill="#000000" stroke="none">
<path d="M1080 5110 c-308 -16 -566 -129 -757 -334 -85 -92 -154 -220 -173
-321 -8 -43 -10 -613 -8 -2030 l3 -1970 26 -66 c72 -186 191 -301 379 -365 53
-18 114 -19 1725 -19 1606 0 1672 1 1725 19 150 51 266 146 337 276 73 136 68
-3 68 1835 0 1593 -1 1662 -19 1720 -57 185 -192 322 -379 388 l-62 21 -1580
6 c-1708 5 -1597 1 -1658 58 -37 35 -61 119 -52 180 27 184 182 284 480 313
73 6 614 9 1605 7 1491 -3 1495 -3 1555 -24 176 -62 311 -199 372 -377 16 -49
18 -160 23 -1776 l5 -1723 60 45 c88 66 164 175 202 287 17 52 18 133 21 1600
2 1145 0 1564 -9 1620 -46 300 -246 526 -544 616 -57 17 -145 19 -1630 20
-863 0 -1635 -2 -1715 -6z"/>
</g>
</svg>
